<svg width="220" height="220" viewBox="0 0 220 220" fill="none" xmlns="http://www.w3.org/2000/svg">
  <rect width="220" height="220" rx="56" fill="#0F172A"/>
  <circle cx="110" cy="110" r="72" stroke="#2563EB" stroke-width="16"/>
  <path d="M110 54C140.48 54 166.44 71.48 176.18 98.82C185.92 126.16 176.74 156.38 154.14 172.9C131.52 189.42 100.98 189.42 78.36 172.9C55.76 156.38 46.58 126.16 56.32 98.82C66.06 71.48 92.02 54 122.5 54H110Z" fill="#F59E0B"/>
  <path d="M110 58C138.95 58 162.5 74.86 171.18 100.34C179.86 125.82 171.42 154.34 150.6 169.74C129.78 185.14 101.22 185.14 80.4 169.74C59.58 154.34 51.14 125.82 59.82 100.34C68.5 74.86 92.05 58 121 58H110Z" stroke="#FFFFFF" stroke-width="10" stroke-linecap="round"/>
  <path d="M110 70C133.7 70 151.1 84.56 158.16 106.82C165.22 129.08 159.54 152.08 143.38 164.48C127.22 176.88 104 176.88 87.84 164.48C71.68 152.08 66 129.08 73.06 106.82C80.12 84.56 97.52 70 121.22 70H110Z" fill="#2563EB"/>
  <path d="M89 83C96.42 74.6 108.2 69 121 69C141.38 69 158.5 81.64 164 100.2" stroke="#FFFFFF" stroke-width="8" stroke-linecap="round"/>
  <path d="M98.5 120.5C103.82 109.6 116.14 100.98 129.48 101.2C142.82 101.42 154.46 110.28 159.72 121.3" stroke="#FFFFFF" stroke-width="8" stroke-linecap="round"/>
</svg>
